<svg xmlns="http://www.w3.org/2000/svg" width="18.082" height="16.951" viewBox="0 0 18.082 16.951"><defs><style>.a{fill:#0dc0f5;}</style></defs><g transform="translate(0 -16.014)"><path class="a" d="M17.917,23.805,10.89,16.778a2.617,2.617,0,0,0-3.7,0L.166,23.805a.565.565,0,0,0,.8.8l.448-.448V31.34a1.625,1.625,0,0,0,1.625,1.625H5.863a.353.353,0,0,0,.353-.353V27.384a1.766,1.766,0,0,1,1.766-1.766H10.1a1.766,1.766,0,0,1,1.766,1.766v5.227a.353.353,0,0,0,.353.353h2.825A1.625,1.625,0,0,0,16.67,31.34V24.156l.448.448a.565.565,0,0,0,.8-.8Z"/></g></svg>